<svg
   width="18"
   height="16"
   version="1.1"
   id="svg1"
   xml:space="preserve"
   xmlns="http://www.w3.org/2000/svg"
   xmlns:svg="http://www.w3.org/2000/svg"><path
     fill="none"
     stroke="black"
     stroke-width="1"
     d="m 17.501703,8.012155 v 6.021332 c 0,1.363691 -1.531572,2.064015 -2.51199,0.924223 -2.428183,-2.766348 -4.057383,-4.43927 -7.5194466,-4.463049 0,1.095428 -0.1739734,1.714821 0.7279195,3.39446 0.5503249,1.032887 -1.2757568,1.960003 -1.8911842,1.393363 C 5.0956852,14.125384 4.490642,12.366369 3.9991063,10.494661 H 2.3920204 c -1.89388491,0 -1.89358748,-1.8936803 -1.89358748,-2.482506 m 17.00327008,0 V 1.9908237 c 0,-1.36369081 -1.531572,-2.06401604 -2.51199,-0.9242231 C 13.114307,3.3233525 10.956285,4.9712199 8.5869642,4.987493 H 2.3920204 c -1.89388491,0 -1.89358748,2.4358364 -1.89358748,3.024662" /></svg>
