<?xml version="1.0" encoding="UTF-8" standalone="no"?>
<svg
   width="1024"
   height="1024"
   viewBox="0 0 1024 1024"
   version="1.1"
   id="svg3"
   sodipodi:docname="app_icon.svg"
   inkscape:export-filename="../../Desktop/app_icon.png"
   inkscape:export-xdpi="96"
   inkscape:export-ydpi="96"
   inkscape:version="1.4.2 (ebf0e940, 2025-05-08)"
   xml:space="preserve"
   xmlns:inkscape="http://www.inkscape.org/namespaces/inkscape"
   xmlns:sodipodi="http://sodipodi.sourceforge.net/DTD/sodipodi-0.dtd"
   xmlns:xlink="http://www.w3.org/1999/xlink"
   xmlns="http://www.w3.org/2000/svg"
   xmlns:svg="http://www.w3.org/2000/svg"><sodipodi:namedview
     id="namedview3"
     pagecolor="#ffffff"
     bordercolor="#000000"
     borderopacity="0.25"
     inkscape:showpageshadow="2"
     inkscape:pageopacity="0.0"
     inkscape:pagecheckerboard="true"
     inkscape:deskcolor="#d1d1d1"
     showgrid="true"
     inkscape:export-bgcolor="#ffffff03"
     inkscape:zoom="0.25743953"
     inkscape:cx="-3.8844073"
     inkscape:cy="677.82907"
     inkscape:window-width="1536"
     inkscape:window-height="832"
     inkscape:window-x="0"
     inkscape:window-y="25"
     inkscape:window-maximized="0"
     inkscape:current-layer="svg3" /><defs
     id="defs2"><linearGradient
       id="linearGradient68"
       inkscape:collect="always"><stop
         style="stop-color:#eeeeee;stop-opacity:1;"
         offset="0"
         id="stop68" /><stop
         style="stop-color:#ffffff;stop-opacity:1;"
         offset="1"
         id="stop69" /></linearGradient><linearGradient
       id="linearGradient4"
       inkscape:collect="always"><stop
         style="stop-color:#698600;stop-opacity:1;"
         offset="0"
         id="stop4" /><stop
         style="stop-color:#4c6e00;stop-opacity:1;"
         offset="1"
         id="stop5" /></linearGradient><linearGradient
       inkscape:collect="always"
       xlink:href="#linearGradient4"
       id="linearGradient5"
       x1="512"
       y1="0"
       x2="512"
       y2="1024"
       gradientUnits="userSpaceOnUse" /><linearGradient
       inkscape:collect="always"
       xlink:href="#linearGradient68"
       id="linearGradient69"
       x1="512"
       y1="855.633"
       x2="512"
       y2="209.53094"
       gradientUnits="userSpaceOnUse"
       gradientTransform="translate(-4.3825256e-4,32.05487)" /><filter
       style="color-interpolation-filters:sRGB;"
       inkscape:label="Drop Shadow"
       id="filter70"
       x="-0.1063794"
       y="-0.10518418"
       width="1.2127588"
       height="1.2541951"><feFlood
         result="flood"
         in="SourceGraphic"
         flood-opacity="0.301961"
         flood-color="rgb(0,0,0)"
         id="feFlood69" /><feGaussianBlur
         result="blur"
         in="SourceGraphic"
         stdDeviation="25"
         id="feGaussianBlur69" /><feOffset
         result="offset"
         in="blur"
         dx="0.000000"
         dy="25"
         id="feOffset69" /><feComposite
         result="comp1"
         operator="in"
         in="flood"
         in2="offset"
         id="feComposite69" /><feComposite
         result="comp2"
         operator="over"
         in="SourceGraphic"
         in2="comp1"
         id="feComposite70" /></filter></defs><rect
     style="display:inline;fill:url(#linearGradient5);stroke:none;stroke-width:64;stroke-linejoin:round;stroke-miterlimit:0"
     id="rect3"
     width="1024"
     height="1024"
     x="0"
     y="0"
     inkscape:label="Background gradient" /><g
     id="g1"
     inkscape:label="Logo"><path
       d="m 403.81055,742.73487 h -135.365 c -10.199,0 -19.98,-4.052 -27.193,-11.264 -7.211,-7.211 -11.263,-16.993 -11.263,-27.192 v -384.559 c 0,-10.198 4.052,-19.98 11.263,-27.192 7.213,-7.212 16.994,-11.263 27.193,-11.263 h 487.108 c 10.198,0 19.98,4.051 27.192,11.263 7.212,7.212 11.263,16.994 11.263,27.192 v 384.559 c 0,10.199 -4.051,19.981 -11.263,27.192 -7.212,7.212 -16.994,11.264 -27.192,11.264 h -133.571 l -109.214,108.958 z m 108.189,-128.186 c -20.739,0 -39.435,12.492 -47.371,31.653 -7.937,19.159 -3.55,41.214 11.114,55.877 14.665,14.665 36.719,19.052 55.879,11.116 19.16,-7.937 31.653,-26.633 31.653,-47.372 0,-13.599 -5.403,-26.641 -15.019,-36.256 -9.615,-9.616 -22.657,-15.018 -36.256,-15.018 z m 0,-282.01 c -13.599,0 -26.641,5.403 -36.257,15.018 -9.615,9.616 -15.018,22.658 -15.018,36.257 0,2.05 10.255,205.097 51.275,205.097 41.019,0 51.275,-203.047 51.275,-205.097 0,-13.599 -5.403,-26.641 -15.019,-36.257 -9.615,-9.615 -22.657,-15.018 -36.256,-15.018 z"
       id="path2"
       fill="url(#linearGradient69)"
       style="display:inline;fill:url(#linearGradient69);filter:url(#filter70)" /><path
       d="m 755.55353,294.08341 c 6.79946,0 13.32044,2.70093 18.12781,7.50918 4.80825,4.80737 7.50918,11.32835 7.50918,18.12781 v 384.55914 c 0,6.79946 -2.70093,13.32045 -7.50918,18.12782 -4.80737,4.80824 -11.32835,7.50917 -18.12781,7.50917 H 616.85559 l -7.4341,7.43497 -96.39622,95.11384 -96.39621,-95.11384 -7.43497,-7.43497 H 268.44557 c -6.79946,0 -13.32044,-2.70093 -18.12781,-7.50917 -4.80825,-4.80737 -7.50917,-11.32836 -7.50917,-18.12782 V 319.7204 c 0,-6.79946 2.70092,-13.32044 7.50917,-18.12781 4.80737,-4.80825 11.32835,-7.50918 18.12781,-7.50918 z M 511.99955,601.73073 c -25.92331,0 -49.2941,15.61545 -59.21438,39.56501 -9.92028,23.95043 -4.43637,51.51752 13.89397,69.84873 18.33034,18.33034 45.89831,23.81338 69.84787,13.89311 23.94956,-9.92028 39.56588,-33.29107 39.56588,-59.21439 0,-16.9982 -6.75319,-33.30067 -18.77293,-45.3204 -12.01974,-12.01974 -28.3222,-18.77206 -45.32041,-18.77206 27.43178,0 39.73785,-25.63786 51.27484,-109.98466 6.08713,-35.73883 10.36549,-71.76226 12.8185,-107.93233 0,-22.89853 -12.21616,-44.05724 -32.04711,-55.50607 -19.83008,-11.44969 -44.26238,-11.44969 -64.09246,0 -19.83095,11.44883 -32.04711,32.60754 -32.04711,55.50607 2.02876,36.14825 5.87937,72.17167 11.537,107.93233 12.81849,84.3468 25.63698,109.98379 51.27484,109.98379 M 755.55353,268.44643 H 268.44557 c -13.59891,0 -26.64088,5.40185 -36.2565,15.01747 -9.61562,9.61561 -15.01747,22.65758 -15.01747,36.2565 v 384.55914 c 0,13.59892 5.40185,26.64002 15.01747,36.25651 9.61562,9.61561 22.65759,15.01747 36.2565,15.01747 H 398.68282 L 513.02527,869.89597 627.36686,755.55352 h 128.18667 c 13.59892,0 26.64089,-5.40186 36.2565,-15.01747 9.61562,-9.61649 15.01834,-22.65759 15.01834,-36.25651 V 319.7204 c 0,-13.59892 -5.40272,-26.64089 -15.01834,-36.2565 -9.61561,-9.61562 -22.65758,-15.01747 -36.2565,-15.01747 z M 511.99955,576.09287 c -21.27919,0 -38.45548,-170.99995 -38.45548,-192.27913 0,-13.73859 7.32935,-26.434 19.22774,-33.30417 11.8984,-6.86929 26.55708,-6.86929 38.45548,0 11.8984,6.87017 19.22861,19.56558 19.22861,33.30417 0,21.27918 -17.17716,192.27913 -38.45635,192.27913 z m 0,128.18667 c -15.55434,0 -29.57664,-9.36944 -35.52845,-23.74005 -5.95269,-14.36973 -2.66252,-30.91051 8.33586,-41.90889 10.99838,-10.99751 27.53915,-14.28768 41.90889,-8.33586 14.36974,5.95269 23.74005,19.97499 23.74005,35.52845 0,10.19963 -4.05226,19.9811 -11.26376,27.1926 -7.21236,7.21149 -16.99384,11.26375 -27.19259,11.26375 z"
       fill="#ffffff"
       id="path3"
       style="display:inline;stroke-width:0.872956" /></g></svg>
