<svg
   width="23"
   height="23"
   version="1.1"
   xml:space="preserve"
   xmlns="http://www.w3.org/2000/svg"
   xmlns:svg="http://www.w3.org/2000/svg"><path
     d="M 11.499998,0 C 11.18949,1.2999462e-7 10.922432,0.21205688 10.86294,0.50583847 L 10.466636,2.3065451 A 9.3844016,9.2495419 0 0 0 9.280696,2.5125913 L 8.2839914,0.95406203 C 8.1262068,0.69802982 7.8009986,0.58865695 7.5092175,0.69333067 7.2174348,0.79800464 7.0401224,1.0876123 7.0861626,1.3837317 L 7.3388065,3.2088516 A 9.3844016,9.2495419 0 0 0 6.2965268,3.802577 h -0.00101 L 4.8183134,2.674694 C 4.5811995,2.4872924 4.2378087,2.493596 3.9999457,2.6903183 3.7620828,2.887041 3.6963959,3.2185602 3.8424148,3.4813013 L 4.7132929,5.1111166 A 9.3844016,9.2495419 0 0 0 3.9385186,6.0212354 L 2.1591137,5.4587587 C 1.8712699,5.3625912 1.5514827,5.4847176 1.3962286,5.7497621 1.2409747,6.0148057 1.2936693,6.3489323 1.5220551,6.5466042 L 2.905156,7.7838575 A 9.3844016,9.2495419 0 0 0 2.4939906,8.9000223 l -1.86857326,0.072263 c -0.30385552,0.00666 -0.56134268,0.2288551 -0.61526193,0.5302516 -0.05391905,0.301396 0.11111648,0.5982411 0.39432243,0.7070011 l 1.72986686,0.697237 a 9.3844016,9.2495419 0 0 0 -0.018825,0.592749 9.3844016,9.2495419 0 0 0 0.019815,0.593726 l -1.73085691,0.697237 c -0.28321777,0.108694 -0.44824148,0.404629 -0.39432243,0.706025 0.05391931,0.301396 0.31238534,0.524496 0.61625268,0.531228 l 1.86758246,0.07129 a 9.3844016,9.2495419 0 0 0 0.4121561,1.115189 L 1.522055,16.453425 c -0.2284197,0.197614 -0.2810804,0.530822 -0.1258265,0.795866 0.1552542,0.265043 0.4750073,0.387113 0.7628852,0.291003 l 1.7803956,-0.5615 a 9.3844016,9.2495419 0 0 0 0.7737835,0.909142 l -0.870878,1.629816 c -0.146071,0.262698 -0.080332,0.59426 0.1575308,0.790982 0.2378631,0.196723 0.5812018,0.203961 0.8183678,0.0166 L 6.2955361,19.19647 h 0.00101 a 9.3844016,9.2495419 0 0 0 1.0422797,0.593726 L 7.086182,21.616293 c -0.046106,0.296096 0.1312721,0.58475 0.4230548,0.689423 0.2917817,0.104674 0.6169254,-0.0047 0.7747739,-0.26073 l 0.9966808,-1.557554 -0.00198,-10e-4 a 9.3844016,9.2495419 0 0 0 1.1879215,0.207023 l 0.396304,1.800707 C 10.922357,22.787944 11.189488,23 11.499996,23 c 0.310508,0 0.577567,-0.212056 0.637059,-0.505838 l 0.396303,-1.800707 a 9.3844016,9.2495419 0 0 0 1.18594,-0.207023 l 0.996705,1.55853 c 0.157784,0.256031 0.482992,0.365404 0.774774,0.26073 0.291782,-0.104673 0.469094,-0.393304 0.423054,-0.689423 l -0.252643,-1.826097 a 9.3844016,9.2495419 0 0 0 1.042279,-0.593726 l 1.478213,1.128861 c 0.237115,0.187401 0.580505,0.180119 0.818368,-0.0166 0.237863,-0.196723 0.30355,-0.528241 0.157531,-0.790982 l -0.870878,-1.629816 a 9.3844016,9.2495419 0 0 0 0.774775,-0.909142 l 1.780395,0.5615 c 0.287844,0.09617 0.607631,-0.02596 0.762885,-0.291003 0.155254,-0.265044 0.10256,-0.59917 -0.125827,-0.796843 l -1.38409,-1.238205 a 9.3844016,9.2495419 0 0 0 0.411164,-1.115189 l 1.868573,-0.07227 c 0.303856,-0.0067 0.561343,-0.228855 0.615262,-0.530251 0.05392,-0.301396 -0.111116,-0.597265 -0.394322,-0.706025 L 20.864655,12.09325 a 9.3844016,9.2495419 0 0 0 0.01981,-0.593725 9.3844016,9.2495419 0 0 0 -0.01981,-0.59275 l 1.730857,-0.698212 C 22.878731,10.099867 23.043754,9.8039329 22.989835,9.5025364 22.935915,9.2011399 22.678441,8.9790165 22.374573,8.9722853 L 20.506006,8.9000223 A 9.3844016,9.2495419 0 0 0 20.094841,7.7848344 L 21.477942,6.5466042 C 21.706361,6.3489903 21.760013,6.0148057 21.604759,5.7497621 21.449505,5.4847191 21.128761,5.3626491 20.840883,5.4587587 L 19.061479,6.0212354 A 9.3844016,9.2495419 0 0 0 18.286703,5.112093 L 19.157582,3.4813013 C 19.303653,3.2186035 19.237912,2.8870409 19.000051,2.6903183 18.762188,2.493596 18.418849,2.4873357 18.181683,2.6746939 L 16.70446,3.802577 A 9.3844016,9.2495419 0 0 0 15.661191,3.2088516 L 15.913833,1.3837317 C 15.959938,1.0876353 15.782562,0.79800464 15.49078,0.69333067 15.198997,0.58865695 14.873853,0.69805497 14.716006,0.95406203 L 13.719301,2.5125913 A 9.3844016,9.2495419 0 0 0 12.533361,2.3065451 L 12.137057,0.50583847 C 12.077633,0.21205689 11.810506,1.3499442e-7 11.499998,0 Z m 0,3.2498655 a 8.369872,8.2495917 0 0 1 8.354088,7.7496795 H 11.792272 L 7.7618608,4.1179936 A 8.369872,8.2495917 0 0 1 11.499998,3.2498655 Z M 6.8830572,4.617973 10.91446,11.499525 6.8830572,18.381076 A 8.369872,8.2495917 0 0 1 3.1300585,11.499525 8.369872,8.2495917 0 0 1 6.8830572,4.617973 Z m 4.9092148,7.381531 h 8.061814 a 8.369872,8.2495917 0 0 1 -8.354088,7.749679 8.369872,8.2495917 0 0 1 -3.7381372,-0.868128 z" /></svg>
