<svg
   width="464"
   height="130"
   viewBox="0 0 928 260"
   version="1.1"
   xml:space="preserve"
   style="clip-rule:evenodd;fill-rule:evenodd;stroke-linejoin:round;stroke-miterlimit:2"
   id="svg13"
   xmlns="http://www.w3.org/2000/svg"
   xmlns:svg="http://www.w3.org/2000/svg"><defs
   id="defs13"><linearGradient
     id="a"
     x1="13.5"
     y1="24.75"
     x2="13.5"
     y2="2.5"
     gradientUnits="userSpaceOnUse"><stop
       offset="0"
       stop-color="#eee"
       id="stop1" /><stop
       offset="1"
       stop-color="#fff"
       id="stop2" /></linearGradient></defs>
	
	<g
   id="g10"
   fill="#ffffff">
		<path
   d="m 291.296,91.68 c 0,4.224 0.552,7.728 1.656,10.512 1.104,2.784 2.592,5.184 4.464,7.2 1.872,2.016 4.08,3.792 6.624,5.328 2.544,1.536 5.256,3.12 8.136,4.752 5.472,3.072 9.576,6.36 12.312,9.864 2.736,3.504 4.104,7.464 4.104,11.88 0,2.496 -0.408,4.8 -1.224,6.912 -0.816,2.112 -1.92,3.936 -3.312,5.472 -1.392,1.536 -3.048,2.736 -4.968,3.6 -1.92,0.864 -3.936,1.296 -6.048,1.296 -3.648,0 -7.08,-1.344 -10.296,-4.032 -3.216,-2.688 -5.544,-6.48 -6.984,-11.376 -0.384,-1.344 -0.672,-2.64 -0.864,-3.888 -0.192,-1.248 -0.36,-2.328 -0.504,-3.24 -0.144,-0.912 -0.36,-1.632 -0.648,-2.16 -0.288,-0.528 -0.768,-0.792 -1.44,-0.792 -1.44,0 -2.16,1.488 -2.16,4.464 0,0.192 0.024,0.6 0.072,1.224 0.048,0.624 0.072,1.464 0.072,2.52 0,1.344 -0.048,2.784 -0.144,4.32 -0.096,1.536 -0.144,3.12 -0.144,4.752 0,4.128 1.968,7.224 5.904,9.288 3.936,2.064 9.072,3.096 15.408,3.096 4.032,0 7.752,-0.744 11.16,-2.232 3.408,-1.488 6.336,-3.528 8.784,-6.12 2.448,-2.592 4.368,-5.664 5.76,-9.216 1.392,-3.552 2.088,-7.44 2.088,-11.664 0,-4.032 -0.528,-7.584 -1.584,-10.656 -1.056,-3.072 -2.616,-5.832 -4.68,-8.28 -2.064,-2.448 -4.584,-4.68 -7.56,-6.696 -2.976,-2.016 -6.384,-4.032 -10.224,-6.048 -4.608,-2.4 -7.992,-4.8 -10.152,-7.2 -2.16,-2.4 -3.24,-5.52 -3.24,-9.36 0,-4.608 1.224,-8.232 3.672,-10.872 2.448,-2.64 5.832,-3.96 10.152,-3.96 3.36,0 5.952,1.008 7.776,3.024 1.824,2.016 3.504,4.944 5.04,8.784 1.056,2.496 1.752,4.392 2.088,5.688 0.336,1.296 1.032,1.944 2.088,1.944 1.248,0 1.872,-1.008 1.872,-3.024 0,-9.504 -0.384,-14.736 -1.152,-15.696 -0.672,-0.864 -2.568,-1.824 -5.688,-2.88 -3.12,-1.056 -6.696,-1.584 -10.728,-1.584 -3.936,0 -7.464,0.6 -10.584,1.8 -3.12,1.2 -5.784,2.904 -7.992,5.112 -2.208,2.208 -3.912,4.848 -5.112,7.92 -1.2,3.072 -1.8,6.48 -1.8,10.224 z"
   style="fill-rule:nonzero"
   id="path1" />
		<path
   d="m 365.744,96.576 c 0,-0.864 -0.096,-1.584 -0.288,-2.16 -0.192,-0.576 -0.432,-0.864 -0.72,-0.864 -0.288,0 -0.672,0.216 -1.152,0.648 -0.48,0.432 -1.08,1.008 -1.8,1.728 -0.72,0.72 -1.632,1.56 -2.736,2.52 -1.104,0.96 -2.472,1.92 -4.104,2.88 -1.92,1.056 -3.576,1.872 -4.968,2.448 -1.392,0.576 -2.088,1.488 -2.088,2.736 0,0.864 0.336,1.344 1.008,1.44 0.672,0.096 1.392,0.24 2.16,0.432 0.768,0.192 1.488,0.744 2.16,1.656 0.672,0.912 1.008,2.616 1.008,5.112 v 33.984 c 0,1.824 -0.144,3.192 -0.432,4.104 -0.288,0.912 -0.96,1.608 -2.016,2.088 -0.576,0.288 -1.128,0.48 -1.656,0.576 -0.528,0.096 -0.984,0.192 -1.368,0.288 -0.384,0.096 -0.696,0.264 -0.936,0.504 -0.24,0.24 -0.36,0.696 -0.36,1.368 0,1.632 0.768,2.448 2.304,2.448 1.056,0 2.448,-0.168 4.176,-0.504 1.728,-0.336 3.84,-0.504 6.336,-0.504 2.4,0 4.56,0.168 6.48,0.504 1.92,0.336 3.6,0.504 5.04,0.504 1.728,0 2.592,-0.768 2.592,-2.304 0,-0.672 -0.168,-1.152 -0.504,-1.44 -0.336,-0.288 -0.768,-0.504 -1.296,-0.648 -0.528,-0.144 -1.152,-0.264 -1.872,-0.36 -0.72,-0.096 -1.464,-0.336 -2.232,-0.72 -0.864,-0.48 -1.44,-1.152 -1.728,-2.016 -0.288,-0.864 -0.432,-2.16 -0.432,-3.888 v -31.392 c 0,-5.184 1.008,-9.024 3.024,-11.52 2.016,-2.496 4.704,-3.744 8.064,-3.744 4.224,0 7.08,1.896 8.568,5.688 1.488,3.792 2.232,9.432 2.232,16.92 v 24.048 c 0,1.92 -0.168,3.288 -0.504,4.104 -0.336,0.816 -1.032,1.512 -2.088,2.088 -0.576,0.288 -1.104,0.456 -1.584,0.504 -0.48,0.048 -0.936,0.12 -1.368,0.216 -0.432,0.096 -0.768,0.288 -1.008,0.576 -0.24,0.288 -0.36,0.768 -0.36,1.44 0,1.632 0.768,2.448 2.304,2.448 1.056,0 2.448,-0.168 4.176,-0.504 1.728,-0.336 3.84,-0.504 6.336,-0.504 2.304,0 4.44,0.168 6.408,0.504 1.968,0.336 3.672,0.504 5.112,0.504 1.728,0 2.592,-0.768 2.592,-2.304 0,-0.672 -0.168,-1.152 -0.504,-1.44 -0.336,-0.288 -0.768,-0.504 -1.296,-0.648 -0.528,-0.144 -1.152,-0.264 -1.872,-0.36 -0.72,-0.096 -1.464,-0.336 -2.232,-0.72 -0.864,-0.48 -1.416,-1.152 -1.656,-2.016 -0.24,-0.864 -0.36,-2.16 -0.36,-3.888 v -31.392 c 0,-5.184 1.008,-9.024 3.024,-11.52 2.016,-2.496 4.656,-3.744 7.92,-3.744 4.32,0 7.176,1.92 8.568,5.76 1.392,3.84 2.088,9.456 2.088,16.848 v 24.048 c 0,1.824 -0.144,3.192 -0.432,4.104 -0.288,0.912 -0.96,1.608 -2.016,2.088 -0.576,0.288 -1.128,0.48 -1.656,0.576 -0.528,0.096 -0.984,0.192 -1.368,0.288 -0.384,0.096 -0.696,0.264 -0.936,0.504 -0.24,0.24 -0.36,0.696 -0.36,1.368 0,1.632 0.768,2.448 2.304,2.448 1.056,0 2.448,-0.168 4.176,-0.504 1.728,-0.336 3.84,-0.504 6.336,-0.504 2.4,0 4.56,0.168 6.48,0.504 1.92,0.336 3.6,0.504 5.04,0.504 1.728,0 2.592,-0.768 2.592,-2.304 0,-0.672 -0.168,-1.152 -0.504,-1.44 -0.336,-0.288 -0.768,-0.504 -1.296,-0.648 -0.528,-0.144 -1.152,-0.264 -1.872,-0.36 -0.72,-0.096 -1.464,-0.336 -2.232,-0.72 -0.864,-0.48 -1.44,-1.152 -1.728,-2.016 -0.288,-0.864 -0.432,-2.16 -0.432,-3.888 v -33.984 c 0,-6.432 -1.536,-11.568 -4.608,-15.408 -3.072,-3.84 -7.056,-5.76 -11.952,-5.76 -7.104,0 -13.008,3.792 -17.712,11.376 h -0.72 c -1.92,-3.36 -4.128,-6.096 -6.624,-8.208 -2.496,-2.112 -5.712,-3.168 -9.648,-3.168 -2.688,0 -5.256,0.672 -7.704,2.016 -2.448,1.344 -4.584,3.264 -6.408,5.76 l -1.44,1.872 c -0.48,0.576 -0.816,0.864 -1.008,0.864 -0.288,0 -0.432,-0.624 -0.432,-1.872 z"
   style="fill-rule:nonzero"
   id="path2" />
		<path
   d="m 460.352,68.928 c -1.728,0 -3.216,0.816 -4.464,2.448 -1.248,1.632 -1.872,3.456 -1.872,5.472 0,2.016 0.624,3.84 1.872,5.472 1.248,1.632 2.736,2.448 4.464,2.448 1.728,0 3.216,-0.816 4.464,-2.448 1.248,-1.632 1.872,-3.456 1.872,-5.472 0,-2.016 -0.624,-3.84 -1.872,-5.472 -1.248,-1.632 -2.736,-2.448 -4.464,-2.448 z m 5.472,27.648 c 0,-2.016 -0.48,-3.024 -1.44,-3.024 -0.384,0 -0.792,0.216 -1.224,0.648 -0.432,0.432 -0.984,0.984 -1.656,1.656 -0.672,0.672 -1.512,1.44 -2.52,2.304 -1.008,0.864 -2.232,1.728 -3.672,2.592 -2.4,1.344 -4.248,2.352 -5.544,3.024 -1.296,0.672 -1.944,1.536 -1.944,2.592 0,0.96 0.312,1.464 0.936,1.512 0.624,0.048 1.296,0.192 2.016,0.432 0.72,0.24 1.392,0.792 2.016,1.656 0.624,0.864 0.936,2.592 0.936,5.184 v 33.984 c 0,1.92 -0.12,3.288 -0.36,4.104 -0.24,0.816 -0.888,1.512 -1.944,2.088 -0.576,0.288 -1.104,0.456 -1.584,0.504 -0.48,0.048 -0.936,0.12 -1.368,0.216 -0.432,0.096 -0.768,0.288 -1.008,0.576 -0.24,0.288 -0.36,0.768 -0.36,1.44 0,1.632 0.72,2.448 2.16,2.448 1.056,0 2.448,-0.168 4.176,-0.504 1.728,-0.336 3.84,-0.504 6.336,-0.504 2.304,0 4.464,0.168 6.48,0.504 2.016,0.336 3.744,0.504 5.184,0.504 1.728,0 2.592,-0.768 2.592,-2.304 0,-0.672 -0.168,-1.152 -0.504,-1.44 -0.336,-0.288 -0.768,-0.504 -1.296,-0.648 -0.528,-0.144 -1.152,-0.264 -1.872,-0.36 -0.72,-0.096 -1.464,-0.336 -2.232,-0.72 -0.864,-0.48 -1.464,-1.152 -1.8,-2.016 -0.336,-0.864 -0.504,-2.16 -0.504,-3.888 z"
   style="fill-rule:nonzero"
   id="path3" />
		<path
   d="m 496.64,85.92 c 0,-1.056 -0.072,-1.896 -0.216,-2.52 -0.144,-0.624 -0.552,-0.936 -1.224,-0.936 -0.864,0 -1.848,0.96 -2.952,2.88 -1.104,1.92 -2.808,4.224 -5.112,6.912 -1.344,1.44 -2.568,2.592 -3.672,3.456 -1.104,0.864 -2.088,1.584 -2.952,2.16 -0.864,0.576 -1.536,1.104 -2.016,1.584 -0.48,0.48 -0.72,1.008 -0.72,1.584 0,1.248 0.864,1.872 2.592,1.872 h 2.592 c 0.96,0 1.536,0.408 1.728,1.224 0.192,0.816 0.288,1.896 0.288,3.24 l -0.576,30.96 v 6.048 c 0,12.192 3.84,18.288 11.52,18.288 2.208,0 4.296,-0.408 6.264,-1.224 1.968,-0.816 3.696,-1.8 5.184,-2.952 1.488,-1.152 2.664,-2.304 3.528,-3.456 0.864,-1.152 1.296,-2.064 1.296,-2.736 0,-1.344 -0.48,-2.016 -1.44,-2.016 -0.48,0 -0.984,0.192 -1.512,0.576 -0.528,0.384 -1.128,0.84 -1.8,1.368 -0.672,0.528 -1.416,0.984 -2.232,1.368 -0.816,0.384 -1.752,0.576 -2.808,0.576 -2.208,0 -3.72,-1.032 -4.536,-3.096 -0.816,-2.064 -1.224,-5.352 -1.224,-9.864 v -36.432 c 0,-1.248 0.576,-1.872 1.728,-1.872 h 10.944 c 0.864,0 1.392,-0.144 1.584,-0.432 0.192,-0.288 0.288,-0.816 0.288,-1.584 v -2.88 c 0,-0.576 -0.096,-0.96 -0.288,-1.152 -0.192,-0.192 -0.72,-0.288 -1.584,-0.288 h -10.8 c -1.248,0 -1.872,-0.624 -1.872,-1.872 z"
   style="fill-rule:nonzero"
   id="path4" />
		<path
   d="m 535.088,72.528 c 0,-1.92 0.072,-3.696 0.216,-5.328 0.144,-1.632 0.216,-3.12 0.216,-4.464 0,-0.864 -0.096,-1.536 -0.288,-2.016 -0.192,-0.48 -0.672,-0.72 -1.44,-0.72 -0.48,0 -1.512,0.552 -3.096,1.656 -1.584,1.104 -4.056,2.28 -7.416,3.528 -1.824,0.672 -3.384,1.176 -4.68,1.512 -1.296,0.336 -1.944,1.032 -1.944,2.088 0,0.768 0.336,1.224 1.008,1.368 0.672,0.144 1.392,0.384 2.16,0.72 0.768,0.336 1.488,0.936 2.16,1.8 0.672,0.864 1.008,2.352 1.008,4.464 v 71.856 c 0,1.824 -0.12,3.192 -0.36,4.104 -0.24,0.912 -1.128,1.656 -2.664,2.232 -0.768,0.288 -1.464,0.48 -2.088,0.576 -0.624,0.096 -1.152,0.192 -1.584,0.288 -0.432,0.096 -0.792,0.264 -1.08,0.504 -0.288,0.24 -0.432,0.696 -0.432,1.368 0,1.536 0.864,2.304 2.592,2.304 1.152,0 2.688,-0.144 4.608,-0.432 1.92,-0.288 4.272,-0.432 7.056,-0.432 2.784,0 5.136,0.144 7.056,0.432 1.92,0.288 3.36,0.432 4.32,0.432 1.632,0 2.448,-0.672 2.448,-2.016 0,-0.864 -0.168,-1.44 -0.504,-1.728 -0.336,-0.288 -0.768,-0.504 -1.296,-0.648 -0.528,-0.144 -1.128,-0.24 -1.8,-0.288 -0.672,-0.048 -1.344,-0.312 -2.016,-0.792 -0.864,-0.576 -1.44,-1.344 -1.728,-2.304 -0.288,-0.96 -0.432,-2.16 -0.432,-3.6 v -31.248 c 0,-5.184 1.128,-9.024 3.384,-11.52 2.256,-2.496 5.112,-3.744 8.568,-3.744 7.584,0 11.376,5.808 11.376,17.424 v 29.088 c 0,1.728 -0.144,3.024 -0.432,3.888 -0.288,0.864 -1.152,1.632 -2.592,2.304 -0.672,0.288 -1.32,0.48 -1.944,0.576 -0.624,0.096 -1.176,0.192 -1.656,0.288 -0.48,0.096 -0.864,0.288 -1.152,0.576 -0.288,0.288 -0.432,0.768 -0.432,1.44 0,1.536 0.864,2.304 2.592,2.304 1.344,0 3,-0.144 4.968,-0.432 1.968,-0.288 4.2,-0.432 6.696,-0.432 2.4,0 4.488,0.144 6.264,0.432 1.776,0.288 3.192,0.432 4.248,0.432 1.44,0 2.16,-0.672 2.16,-2.016 0,-0.768 -0.12,-1.296 -0.36,-1.584 -0.24,-0.288 -0.576,-0.504 -1.008,-0.648 -0.432,-0.144 -0.936,-0.288 -1.512,-0.432 -0.576,-0.144 -1.248,-0.504 -2.016,-1.08 -0.768,-0.48 -1.248,-1.152 -1.44,-2.016 -0.192,-0.864 -0.288,-2.064 -0.288,-3.6 v -32.256 c 0,-7.296 -1.608,-12.912 -4.824,-16.848 -3.216,-3.936 -7.704,-5.904 -13.464,-5.904 -2.688,0 -5.28,0.696 -7.776,2.088 -2.496,1.392 -4.656,3.288 -6.48,5.688 l -1.44,1.872 c -0.48,0.576 -0.864,0.864 -1.152,0.864 -0.192,0 -0.288,-0.624 -0.288,-1.872 z"
   style="fill-rule:nonzero"
   id="path5" />
		<path
   d="m 608.384,114.864 h -9.36 c -1.152,0 -1.728,-0.432 -1.728,-1.296 v -0.288 l 0.432,-2.304 c 0.768,-3.936 2.4,-7.2 4.896,-9.792 2.496,-2.592 5.424,-3.888 8.784,-3.888 3.072,0 5.592,1.008 7.56,3.024 1.968,2.016 2.952,4.224 2.952,6.624 0,3.168 -1.08,5.28 -3.24,6.336 -2.16,1.056 -5.592,1.584 -10.296,1.584 z m 21.312,4.464 c 1.728,0 2.976,-0.192 3.744,-0.576 0.768,-0.384 1.152,-1.2 1.152,-2.448 0,-3.072 -0.552,-5.952 -1.656,-8.64 -1.104,-2.688 -2.664,-5.04 -4.68,-7.056 -2.016,-2.016 -4.464,-3.624 -7.344,-4.824 -2.88,-1.2 -6.048,-1.8 -9.504,-1.8 -4.032,0 -7.752,0.816 -11.16,2.448 -3.408,1.632 -6.36,3.936 -8.856,6.912 -2.496,2.976 -4.44,6.6 -5.832,10.872 -1.392,4.272 -2.088,9.048 -2.088,14.328 0,5.28 0.624,10.032 1.872,14.256 1.248,4.224 3.024,7.824 5.328,10.8 2.304,2.976 5.064,5.256 8.28,6.84 3.216,1.584 6.792,2.376 10.728,2.376 3.744,0 7.104,-0.624 10.08,-1.872 2.976,-1.248 5.544,-2.712 7.704,-4.392 2.16,-1.68 3.816,-3.384 4.968,-5.112 1.152,-1.728 1.728,-3.12 1.728,-4.176 0,-1.056 -0.384,-1.584 -1.152,-1.584 -0.288,0 -0.792,0.432 -1.512,1.296 -0.72,0.864 -1.728,1.824 -3.024,2.88 -1.296,1.056 -2.928,2.016 -4.896,2.88 -1.968,0.864 -4.296,1.296 -6.984,1.296 -6.048,0 -10.968,-2.592 -14.76,-7.776 -3.792,-5.184 -5.688,-12.24 -5.688,-21.168 v -3.456 c 0,-0.96 0.096,-1.584 0.288,-1.872 0.192,-0.288 0.672,-0.432 1.44,-0.432 z"
   style="fill-rule:nonzero"
   id="path6" />
		<path
   d="m 660.368,96.576 c 0,-2.016 -0.48,-3.024 -1.44,-3.024 -0.864,0 -1.944,0.792 -3.24,2.376 -1.296,1.584 -3.336,3.336 -6.12,5.256 -2.016,1.344 -3.648,2.28 -4.896,2.808 -1.248,0.528 -1.872,1.32 -1.872,2.376 0,0.864 0.312,1.368 0.936,1.512 0.624,0.144 1.296,0.312 2.016,0.504 0.72,0.192 1.392,0.576 2.016,1.152 0.624,0.576 0.936,1.728 0.936,3.456 v 36.864 c 0,1.344 -0.12,2.376 -0.36,3.096 -0.24,0.72 -1.032,1.416 -2.376,2.088 -0.768,0.384 -1.488,0.624 -2.16,0.72 -0.672,0.096 -1.248,0.216 -1.728,0.36 -0.48,0.144 -0.864,0.336 -1.152,0.576 -0.288,0.24 -0.432,0.696 -0.432,1.368 0,1.536 0.864,2.304 2.592,2.304 1.536,0 3.288,-0.144 5.256,-0.432 1.968,-0.288 4.104,-0.432 6.408,-0.432 2.496,0 4.872,0.168 7.128,0.504 2.256,0.336 4.344,0.504 6.264,0.504 1.056,0 1.848,-0.216 2.376,-0.648 0.528,-0.432 0.792,-0.936 0.792,-1.512 0,-0.768 -0.192,-1.296 -0.576,-1.584 -0.384,-0.288 -0.888,-0.504 -1.512,-0.648 -0.624,-0.144 -1.416,-0.288 -2.376,-0.432 -0.96,-0.144 -2.016,-0.504 -3.168,-1.08 -1.152,-0.48 -1.92,-1.128 -2.304,-1.944 -0.384,-0.816 -0.576,-2.04 -0.576,-3.672 v -31.248 c 0,-9.024 1.776,-13.536 5.328,-13.536 0.768,0 1.536,0.36 2.304,1.08 0.768,0.72 1.584,1.512 2.448,2.376 0.864,0.864 1.824,1.656 2.88,2.376 1.056,0.72 2.304,1.08 3.744,1.08 1.824,0 3.384,-0.672 4.68,-2.016 1.296,-1.344 1.944,-3.072 1.944,-5.184 0,-2.88 -0.912,-5.28 -2.736,-7.2 -1.824,-1.92 -4.032,-2.88 -6.624,-2.88 -3.456,0 -6.72,1.824 -9.792,5.472 l -2.88,3.168 c -0.672,0.672 -1.104,1.008 -1.296,1.008 -0.288,0 -0.432,-0.432 -0.432,-1.296 z"
   style="fill-rule:nonzero"
   id="path7" />
		<path
   d="m 711.632,114.864 h -9.36 c -1.152,0 -1.728,-0.432 -1.728,-1.296 v -0.288 l 0.432,-2.304 c 0.768,-3.936 2.4,-7.2 4.896,-9.792 2.496,-2.592 5.424,-3.888 8.784,-3.888 3.072,0 5.592,1.008 7.56,3.024 1.968,2.016 2.952,4.224 2.952,6.624 0,3.168 -1.08,5.28 -3.24,6.336 -2.16,1.056 -5.592,1.584 -10.296,1.584 z m 21.312,4.464 c 1.728,0 2.976,-0.192 3.744,-0.576 0.768,-0.384 1.152,-1.2 1.152,-2.448 0,-3.072 -0.552,-5.952 -1.656,-8.64 -1.104,-2.688 -2.664,-5.04 -4.68,-7.056 -2.016,-2.016 -4.464,-3.624 -7.344,-4.824 -2.88,-1.2 -6.048,-1.8 -9.504,-1.8 -4.032,0 -7.752,0.816 -11.16,2.448 -3.408,1.632 -6.36,3.936 -8.856,6.912 -2.496,2.976 -4.44,6.6 -5.832,10.872 -1.392,4.272 -2.088,9.048 -2.088,14.328 0,5.28 0.624,10.032 1.872,14.256 1.248,4.224 3.024,7.824 5.328,10.8 2.304,2.976 5.064,5.256 8.28,6.84 3.216,1.584 6.792,2.376 10.728,2.376 3.744,0 7.104,-0.624 10.08,-1.872 2.976,-1.248 5.544,-2.712 7.704,-4.392 2.16,-1.68 3.816,-3.384 4.968,-5.112 1.152,-1.728 1.728,-3.12 1.728,-4.176 0,-1.056 -0.384,-1.584 -1.152,-1.584 -0.288,0 -0.792,0.432 -1.512,1.296 -0.72,0.864 -1.728,1.824 -3.024,2.88 -1.296,1.056 -2.928,2.016 -4.896,2.88 -1.968,0.864 -4.296,1.296 -6.984,1.296 -6.048,0 -10.968,-2.592 -14.76,-7.776 -3.792,-5.184 -5.688,-12.24 -5.688,-21.168 v -3.456 c 0,-0.96 0.096,-1.584 0.288,-1.872 0.192,-0.288 0.672,-0.432 1.44,-0.432 z"
   style="fill-rule:nonzero"
   id="path8" />
		<path
   d="m 770.24,114.864 h -9.36 c -1.152,0 -1.728,-0.432 -1.728,-1.296 v -0.288 l 0.432,-2.304 c 0.768,-3.936 2.4,-7.2 4.896,-9.792 2.496,-2.592 5.424,-3.888 8.784,-3.888 3.072,0 5.592,1.008 7.56,3.024 1.968,2.016 2.952,4.224 2.952,6.624 0,3.168 -1.08,5.28 -3.24,6.336 -2.16,1.056 -5.592,1.584 -10.296,1.584 z m 21.312,4.464 c 1.728,0 2.976,-0.192 3.744,-0.576 0.768,-0.384 1.152,-1.2 1.152,-2.448 0,-3.072 -0.552,-5.952 -1.656,-8.64 -1.104,-2.688 -2.664,-5.04 -4.68,-7.056 -2.016,-2.016 -4.464,-3.624 -7.344,-4.824 -2.88,-1.2 -6.048,-1.8 -9.504,-1.8 -4.032,0 -7.752,0.816 -11.16,2.448 -3.408,1.632 -6.36,3.936 -8.856,6.912 -2.496,2.976 -4.44,6.6 -5.832,10.872 -1.392,4.272 -2.088,9.048 -2.088,14.328 0,5.28 0.624,10.032 1.872,14.256 1.248,4.224 3.024,7.824 5.328,10.8 2.304,2.976 5.064,5.256 8.28,6.84 3.216,1.584 6.792,2.376 10.728,2.376 3.744,0 7.104,-0.624 10.08,-1.872 2.976,-1.248 5.544,-2.712 7.704,-4.392 2.16,-1.68 3.816,-3.384 4.968,-5.112 1.152,-1.728 1.728,-3.12 1.728,-4.176 0,-1.056 -0.384,-1.584 -1.152,-1.584 -0.288,0 -0.792,0.432 -1.512,1.296 -0.72,0.864 -1.728,1.824 -3.024,2.88 -1.296,1.056 -2.928,2.016 -4.896,2.88 -1.968,0.864 -4.296,1.296 -6.984,1.296 -6.048,0 -10.968,-2.592 -14.76,-7.776 C 759.896,141.072 758,134.016 758,125.088 v -3.456 c 0,-0.96 0.096,-1.584 0.288,-1.872 0.192,-0.288 0.672,-0.432 1.44,-0.432 z"
   style="fill-rule:nonzero"
   id="path9" />
		<path
   d="m 822.512,96.72 c 0,-1.056 -0.144,-1.824 -0.432,-2.304 -0.288,-0.48 -0.576,-0.72 -0.864,-0.72 -0.864,0 -1.872,0.768 -3.024,2.304 -1.152,1.536 -3.12,3.12 -5.904,4.752 -2.4,1.44 -4.224,2.52 -5.472,3.24 -1.248,0.72 -1.872,1.56 -1.872,2.52 0,0.96 0.312,1.464 0.936,1.512 0.624,0.048 1.32,0.168 2.088,0.36 0.768,0.192 1.464,0.72 2.088,1.584 0.624,0.864 0.936,2.592 0.936,5.184 v 33.984 c 0,1.92 -0.144,3.312 -0.432,4.176 -0.288,0.864 -0.96,1.536 -2.016,2.016 -0.576,0.288 -1.128,0.456 -1.656,0.504 -0.528,0.048 -0.984,0.12 -1.368,0.216 -0.384,0.096 -0.696,0.288 -0.936,0.576 -0.24,0.288 -0.36,0.768 -0.36,1.44 0,1.632 0.768,2.448 2.304,2.448 1.056,0 2.448,-0.168 4.176,-0.504 1.728,-0.336 3.84,-0.504 6.336,-0.504 2.4,0 4.56,0.168 6.48,0.504 1.92,0.336 3.552,0.504 4.896,0.504 1.728,0 2.592,-0.72 2.592,-2.16 0,-0.864 -0.144,-1.44 -0.432,-1.728 -0.288,-0.288 -0.696,-0.48 -1.224,-0.576 -0.528,-0.096 -1.128,-0.168 -1.8,-0.216 -0.672,-0.048 -1.44,-0.312 -2.304,-0.792 -0.96,-0.48 -1.56,-1.176 -1.8,-2.088 -0.24,-0.912 -0.36,-2.184 -0.36,-3.816 v -31.248 c 0,-5.184 1.152,-9.024 3.456,-11.52 2.304,-2.496 5.28,-3.744 8.928,-3.744 3.936,0 6.96,1.464 9.072,4.392 2.112,2.928 3.168,7.272 3.168,13.032 v 29.088 c 0,1.728 -0.096,3.048 -0.288,3.96 -0.192,0.912 -0.864,1.656 -2.016,2.232 -0.576,0.288 -1.128,0.456 -1.656,0.504 -0.528,0.048 -1.008,0.12 -1.44,0.216 -0.432,0.096 -0.768,0.288 -1.008,0.576 -0.24,0.288 -0.36,0.768 -0.36,1.44 0,1.632 0.768,2.448 2.304,2.448 0.96,0 2.328,-0.168 4.104,-0.504 1.776,-0.336 3.912,-0.504 6.408,-0.504 2.496,0 4.704,0.168 6.624,0.504 1.92,0.336 3.552,0.504 4.896,0.504 1.728,0 2.592,-0.768 2.592,-2.304 0,-0.768 -0.168,-1.296 -0.504,-1.584 -0.336,-0.288 -0.792,-0.48 -1.368,-0.576 -0.576,-0.096 -1.224,-0.192 -1.944,-0.288 -0.72,-0.096 -1.416,-0.336 -2.088,-0.72 -1.44,-0.96 -2.16,-2.928 -2.16,-5.904 v -30.96 c 0,-7.968 -1.656,-13.992 -4.968,-18.072 -3.312,-4.08 -7.944,-6.12 -13.896,-6.12 -2.88,0 -5.64,0.672 -8.28,2.016 -2.64,1.344 -4.968,3.264 -6.984,5.76 l -1.584,1.872 c -0.48,0.576 -0.864,0.864 -1.152,0.864 -0.288,0 -0.432,-0.624 -0.432,-1.872 z"
   style="fill-rule:nonzero"
   id="path10" />
	</g>
    
<g
   id="g3"
   transform="matrix(8.695652,0,0,8.5251492,12.608698,12.949702)"><path
     d="M 9.28,20.5 H 4 A 1.5,1.5 0 0 1 2.5,19 V 4 A 1.5,1.5 0 0 1 4,2.5 H 23 A 1.5,1.5 0 0 1 24.5,4 V 19 A 1.5,1.5 0 0 1 23,20.5 h -5.21 l -4.26,4.25 z m 4.22,-5 a 2,2 0 1 0 2,2 2,2 0 0 0 -2,-2 z m 0,-11 a 2,2 0 0 0 -2,2 c 0,0.08 0.4,8 2,8 1.6,0 2,-7.92 2,-8 a 2,2 0 0 0 -2,-2 z"
     fill="url(#a)"
     filter="url(#s)"
     id="path2-1"
     style="fill:url(#a)" /><path
     d="m 23,3 a 1,1 0 0 1 1,1 v 15 a 1,1 0 0 1 -1,1 H 17.59 L 17.3,20.29 13.54,24 9.78,20.29 9.49,20 H 4 A 1,1 0 0 1 3,19 V 4 A 1,1 0 0 1 4,3 H 23 M 13.5,15 A 2.5,2.5 0 1 0 16,17.5 2.5,2.5 0 0 0 13.5,15 c 1.07,0 1.55,-1 2,-4.29 A 42,42 0 0 0 16,6.5 a 2.5,2.5 0 0 0 -5,0 42,42 0 0 0 0.45,4.21 c 0.5,3.29 1,4.29 2,4.29 M 23,2 H 4 A 2,2 0 0 0 2,4 v 15 a 2,2 0 0 0 2,2 H 9.08 L 13.54,25.46 18,21 h 5 a 2,2 0 0 0 2,-2 V 4 A 2,2 0 0 0 23,2 Z M 13.5,14 C 12.67,14 12,7.33 12,6.5 a 1.5,1.5 0 0 1 3,0 C 15,7.33 14.33,14 13.5,14 Z m 0,5 A 1.5,1.5 0 1 1 15,17.5 1.5,1.5 0 0 1 13.5,19 Z"
     fill="#ffffff"
     id="path3-3" /></g></svg>
