<?xml version="1.0" encoding="UTF-8" standalone="no"?>
<svg width="27" height="26" version="1.1" xml:space="preserve" xmlns="http://www.w3.org/2000/svg" xmlns:svg="http://www.w3.org/2000/svg">
<path
    fill="none"
    stroke="black"
    stroke-width="1"
    stroke-linejoin="round"
    d="m 13.25,2.4998219 c -2.984355,0 -4.2094043,1.8585274 -4.4766403,3.0134342 -0.228004,0.9961081 0.1568115,3.0866671 -0.3359455,3.9287842 -0.3683478,0.6464147 -0.4609451,1.1053827 -0.4609451,1.4540207 0,0.672238 0.065205,1.246187 0.3750074,1.801425 0.2655882,0.475992 0.9762996,0.485704 1.1347855,1.286174 0.1862205,0.940553 1.01369,1.050334 1.01369,2.021967 0,0.999274 -0.9570952,2.21242 -3.92585,2.960738 -1.257039,0.320708 -3.5742801,1.154606 -3.5742801,3.534539 v 0.999274 H 23.500178 v -0.999274 c 0,-2.379933 -2.317241,-3.213831 -3.57428,-3.534539 -2.968755,-0.748318 -3.92585,-1.961464 -3.92585,-2.960738 0,-0.971633 0.827469,-1.081414 1.013689,-2.021967 0.158486,-0.80047 0.869198,-0.810182 1.134785,-1.286174 0.309802,-0.555238 0.375008,-1.129187 0.375008,-1.801425 0,-0.348637 -0.09259,-0.807606 -0.460946,-1.4540207 C 17.569828,8.5999232 17.954643,6.5093642 17.72664,5.5132561 17.459404,4.3583493 16.234354,2.4998219 13.25,2.4998219 Z"
/>
</svg>
